<?xml version="1.0" encoding="UTF-8" standalone="no"?>
<!-- Created with Inkscape (http://www.inkscape.org/) -->
<svg xmlns:rdf="http://www.w3.org/1999/02/22-rdf-syntax-ns#" xmlns="http://www.w3.org/2000/svg" height="200" viewBox="0 0 200 200" width="200" version="1.1" xmlns:cc="http://creativecommons.org/ns#" xmlns:dc="http://purl.org/dc/elements/1.1/">
 <g>
  <path fill="none" d="m0.09025 154.75c0.0797-39.96 0.23999-44.43 1.371-38.2 3.0619 16.86 8.6398 29.69 18.918 43.55 15.813 21.31 38.902 34.71 67.621 39.23 1.375 0.21656-17.862 0.45503-42.75 0.52993l-45.25 0.14 0.09025-45.25zm111.91 44.58c28.719-4.5231 51.808-17.92 67.621-39.234 10.279-13.855 15.856-26.694 18.918-43.549 1.131-6.2261 1.2913-1.76 1.371 38.2l0.09 45.25-45.25-0.14c-24.888-0.0749-44.125-0.31337-42.75-0.52993zm-60.744-62.39c-4.149-0.88-5.94-2.4-8.329-7.08-1.264-2.48-1.927-5.83-1.927-9.73 0-15.54 10.531-32.278 24.36-38.717 6.7209-3.1293 11.367-3.0869 16.133 0.14734l3.7723 2.5599 2.672-2.5599c3.1932-3.0593 7.0845-3.2981 9.5394-0.58551 1.7294 1.911 1.6238 2.3369-3.2848 13.25-9.271 20.612-11.18 27.062-9.1375 30.878 1.0088 1.8849 1.704 2.0551 6.0427 1.4796 2.697-0.36 4.903-0.39 4.903-0.08 0 0.3116-0.6598 2.1457-1.4662 4.0757-2.0499 4.906-9.0362 8.0759-14.109 6.4018-4.4993-1.4849-6.7581-5.0092-6.7581-10.545v-4.4117l-1.9353 3.2405c-5.4904 9.1932-12.729 13.323-20.475 11.683zm12.634-11.83c8.122-8.12 18.341-29.707 16.519-34.889-1.544-4.388-5.356-5.028-10.834-1.818-7.811 4.578-14.727 17.327-16.148 29.777-1.2633 11.065 3.3051 14.093 10.463 6.9349zm39.145 11.575c-4.7467-2.4059-4.7106-3.7466 0.40965-15.218 8.6408-19.358 15.436-40.455 20.121-62.468 1.3461-6.325 2.6646-12.459 2.9301-13.631 1.0015-4.4209 8.9735-3.3335 10.158 1.3855 1.3699 5.4583-3.2535 24.083-11.699 47.13-2.272 6.1995-3.9622 11.441-3.756 11.647 0.20613 0.20612 3.0164-0.95771 6.2451-2.5863 12.072-6.0892 18.728-13.889 15.189-17.799-2.1476-2.3731-2.0605-3.846 0.30237-5.1106 3.6147-1.9345 8.9592-1.2327 11.733 1.5408 2.1613 2.1613 2.4905 3.2138 2.0446 6.5381-0.29229 2.1791-1.2775 5.1008-2.1894 6.4925-2.2808 3.4809-9.3988 8.3723-16.818 11.557-3.4125 1.4647-6.343 3.3409-6.5123 4.1692-0.45778 2.2402 4.1844 10.753 7.6665 14.059 3.1145 2.9569 6.0171 3.4898 11.391 2.0913 2.2839-0.5943 2.75-0.39457 2.75 1.1785 0 4.991-6.2609 9.3391-13.447 9.3391-3.8176 0-5.1872-0.57859-8.54-3.6076-3.4293-3.0982-8.0048-10.868-10.536-17.892-0.56958-1.5806-1.8323 0.34309-6.0217 9.1736-5.6648 11.94-7.582 13.957-11.42 12.012zm-102.95-91.43-0.09025-45.25 45.25 0.13618c24.888 0.0749 44.125 0.31337 42.75 0.52993-29.302 4.6149-53.05 18.732-68.828 40.913-9.8241 13.811-14.713 25.37-17.711 41.871-1.1308 6.226-1.291 1.76-1.3708-38.2zm198.91 41.878c0-5.107-4.69-21.525-8.35-29.236-14.76-31.11-42.92-51.598-78.65-57.226-1.38-0.21645 17.86-0.45492 42.75-0.52982l45.25-0.13618v45c0 24.75-0.225 45-0.5 45s-0.5-1.2923-0.5-2.8718z"/>
  <path fill="#191919" d="m88 199.4c-17.843-3.29-28.525-7.08-39.956-14.17-22.15-13.75-38.139-35.18-44.773-60.02-3.5937-13.46-3.8199-35.289-0.5027-48.484 9.3777-37.304 38.222-65.551 75.978-74.406 10.665-2.5015 31.842-2.5015 42.507 0 37.756 8.8556 66.6 37.103 75.978 74.406 3.3172 13.195 3.0909 35.028-0.50239 48.482-9.4771 35.484-37.488 62.991-73.229 71.911-7.7458 1.9332-29.727 3.3461-35.5 2.2818zm-25.476-64.16c2.6132-1.4151 6.8054-5.9603 9.2078-9.983l1.9353-3.2405v4.4117c0 5.5353 2.2588 9.0596 6.7581 10.545 5.0728 1.6742 12.059-1.4958 14.109-6.4018 0.806-1.93 1.466-3.76 1.466-4.07 0-0.31161-2.2062-0.2739-4.9028 0.0838-4.3387 0.57554-5.0339 0.4053-6.0427-1.4796-2.0422-3.8158-0.13349-10.266 9.1375-30.878 4.9086-10.913 5.0142-11.339 3.2848-13.25-2.4549-2.7126-6.3462-2.4738-9.5394 0.58551l-2.672 2.558-3.772-2.56c-4.766-3.234-9.412-3.277-16.133-0.147-13.829 6.439-24.36 23.177-24.36 38.717 0 6.0825 2.2267 12.154 5.4331 14.816 3.4525 2.8653 11.089 3.0067 16.09 0.29799zm-8.639-8.99c-2.321-5.9892 1.3704-20.543 7.5845-29.902 4.394-6.6179 11.476-11.105 15.367-9.7368 4.4591 1.5682 4.9235 5.2303 1.7232 13.591-7.996 20.891-21.251 34.883-24.675 26.047zm60.57-1.5764c4.1894-8.8305 5.4521-10.754 6.0217-9.1736 2.5311 7.024 7.1066 14.794 10.536 17.892 3.3528 3.029 4.7224 3.6076 8.54 3.6076 7.1866 0 13.447-4.3481 13.447-9.3391 0-1.5731-0.46607-1.7728-2.75-1.1785-5.3742 1.3984-8.2768 0.86553-11.391-2.0913-3.4822-3.3059-8.1243-11.819-7.6665-14.059 0.16927-0.82834 3.0998-2.7045 6.5123-4.1692 7.4187-3.1843 14.537-8.0756 16.818-11.557 0.91188-1.3917 1.8971-4.3133 2.1894-6.4925 0.44588-3.3243 0.11675-4.3768-2.0446-6.5381-2.7735-2.7735-8.1179-3.4754-11.733-1.5408-2.3629 1.2646-2.45 2.7374-0.30237 5.1106 3.5389 3.9104-3.1169 11.71-15.189 17.799-3.2287 1.6286-6.039 2.7924-6.2451 2.5863-0.20612-0.20613 1.4841-5.4471 3.756-11.647 8.4458-23.046 13.069-41.671 11.699-47.13-1.1844-4.719-9.1564-5.8064-10.158-1.3855-0.27 1.177-1.59 7.311-2.93 13.636-4.6848 22.012-11.48 43.109-20.121 62.468-5.1203 11.471-5.1564 12.812-0.40965 15.218 3.8381 1.9454 5.7553-0.0712 11.42-12.012z"/>
 </g>
</svg>
